<?xml version="1.0" encoding="UTF-8" standalone="no"?>
<svg width="137px" height="137px" viewBox="0 0 137 137" version="1.1" xmlns="http://www.w3.org/2000/svg" xmlns:xlink="http://www.w3.org/1999/xlink">
    <!-- Generator: Sketch 41.2 (35397) - http://www.bohemiancoding.com/sketch -->
    <title>Group 2 Copy</title>
    <desc>Created with Sketch.</desc>
    <defs></defs>
    <g id="Symbols" stroke="none" stroke-width="1" fill="none" fill-rule="evenodd">
        <g id="Group-2-Copy" fill="#FB3535">
            <g>
                <path d="M68.5,29.96875 C49.7695313,29.96875 34.25,46.1739502 34.25,66.359375 C34.25,86.5447998 49.5019531,102.75 68.5,102.75 C87.4980469,102.75 102.75,86.260498 102.75,66.359375 C102.75,46.458252 87.2304688,29.96875 68.5,29.96875 Z M68.5,89.6721191 C56.4589844,89.6721191 46.5585938,79.1529541 46.5585938,66.359375 C46.5585938,53.5657959 56.4589844,43.0466309 68.5,43.0466309 C80.5410156,43.0466309 90.4414063,53.5657959 90.4414063,66.359375 C90.4414063,79.1529541 80.5410156,89.6721191 68.5,89.6721191 Z" id="Shape"></path>
                <ellipse id="Oval" cx="107.03125" cy="29.96875" rx="8.5625" ry="8.5625"></ellipse>
                <path d="M125.951613,11.3245968 C118.770161,3.86693548 108.550403,0 96.9495968,0 L40.0504032,0 C16.0201613,0 0,16.0201613 0,40.0504032 L0,96.6733871 C0,108.550403 3.86693548,118.770161 11.6008065,126.227823 C19.0584677,133.409274 29.0020161,137 40.3266129,137 L96.6733871,137 C108.550403,137 118.493952,133.133065 125.675403,126.227823 C133.133065,119.046371 137,108.826613 137,96.9495968 L137,40.0504032 C137,28.4495968 133.133065,18.5060484 125.951613,11.3245968 Z M124.294355,96.9495968 C124.294355,105.512097 121.808468,112.417339 116.836694,117.112903 C111.864919,121.808468 104.959677,124.294355 96.6733871,124.294355 L40.3266129,124.294355 C32.0403226,124.294355 25.1350806,121.808468 20.1633065,117.112903 C15.1915323,112.141129 12.7056452,105.235887 12.7056452,96.6733871 L12.7056452,40.0504032 C12.7056452,31.7641129 15.1915323,24.858871 20.1633065,19.8870968 C24.858871,15.1915323 32.0403226,12.7056452 40.3266129,12.7056452 L97.2258065,12.7056452 C105.512097,12.7056452 112.417339,15.1915323 117.389113,20.1633065 C122.084677,25.1350806 124.846774,32.0403226 124.846774,40.0504032 L124.846774,96.9495968 L124.294355,96.9495968 Z" id="Shape"></path>
            </g>
        </g>
    </g>
</svg>