<?xml version="1.0" encoding="UTF-8" standalone="no"?>
<svg width="24px" height="24px" viewBox="0 0 24 24" version="1.1" xmlns="http://www.w3.org/2000/svg" xmlns:xlink="http://www.w3.org/1999/xlink">
    <!-- Generator: Sketch 41.2 (35397) - http://www.bohemiancoding.com/sketch -->
    <title>Group</title>
    <desc>Created with Sketch.</desc>
    <defs></defs>
    <g id="Symbols" stroke="none" stroke-width="1" fill="none" fill-rule="evenodd">
        <g id="Group" fill="#000000">
            <g id="Shape">
                <path d="M16.9,7.1 C16.5,6.7 15.9,6.7 15.5,7.1 L7.1,15.5 C6.7,15.9 6.7,16.5 7.1,16.9 C7.5,17.3 8.1,17.3 8.5,16.9 L16.9,8.5 C17.3,8.1 17.3,7.5 16.9,7.1 Z"></path>
                <path d="M8.5,22.5 L12,19 C13.4,17.6 13.8,15.5 13.1,13.7 L11.4,15.4 C11.4,16.2 11.2,17 10.5,17.7 L7,21.2 C5.8,22.4 3.9,22.4 2.8,21.2 C1.6,20 1.6,18.1 2.8,17 L6.3,13.5 C6.9,12.9 7.8,12.6 8.6,12.6 L10.3,10.9 C8.5,10.2 6.4,10.5 5,12 L1.5,15.5 C-0.4,17.4 -0.4,20.6 1.5,22.5 C3.4,24.5 6.6,24.5 8.5,22.5 Z"></path>
                <path d="M13.4,6.4 L16.9,2.9 C18.1,1.7 20,1.7 21.1,2.9 C22.2,4.1 22.3,6 21.1,7.1 L17.6,10.6 C17,11.2 16.1,11.5 15.3,11.5 L13.6,13.2 C15.4,13.9 17.5,13.5 18.9,12.1 L22.4,8.6 C24.3,6.7 24.3,3.5 22.4,1.6 C20.5,-0.3 17.3,-0.3 15.4,1.6 L12,5 C10.6,6.4 10.2,8.5 10.9,10.3 L12.6,8.6 C12.5,7.8 12.8,7 13.4,6.4 Z"></path>
            </g>
        </g>
    </g>
</svg>