<?xml version="1.0" encoding="UTF-8" standalone="no"?>
<svg width="166px" height="137px" viewBox="0 0 166 137" version="1.1" xmlns="http://www.w3.org/2000/svg" xmlns:xlink="http://www.w3.org/1999/xlink">
    <!-- Generator: Sketch 41.2 (35397) - http://www.bohemiancoding.com/sketch -->
    <title>Shape</title>
    <desc>Created with Sketch.</desc>
    <defs></defs>
    <g id="Symbols" stroke="none" stroke-width="1" fill="none" fill-rule="evenodd">
        <g id="Shape" fill="#FB3535">
            <path d="M166,14.55625 C159.89753,18.9720737 153.330045,20.8302693 146.319588,19.69375 C153.474941,17.3842234 158.869781,10.6084828 160.865979,5.1375 C154.832917,6.49170705 147.547693,9.36968577 141.185567,9.41875 C133.577046,4.20232802 124.724925,0 117.226804,0 C96.1231756,0 80.8754237,15.4849628 83,34.25 C80.8754237,37.2939501 81.1753243,39.9323825 83,43.66875 C53.4530581,41.0240296 28.355764,27.2569566 9.41237113,5.1375 C8.62635243,11.4366289 6.94825731,17.3773792 5.13402062,24.83125 C6.94825731,35.7197882 12.9597467,46.3077384 24.814433,53.94375 C16.518117,52.3271969 11.2648032,50.7701454 5.13402062,48.80625 C6.66857479,48.3233502 6.66857479,48.4705001 5.13402062,48.80625 C6.66857479,65.3722086 18.4085013,79.3480292 34.2268041,83.05625 C31.1323712,83.317655 28.1232568,83.7419943 24.814433,83.05625 C22.8193979,83.7419943 20.6863975,83.5264026 19.6804124,83.05625 C22.9440757,96.85887 35.5196801,106.861643 48.7731959,107.8875 C38.7646713,116.416121 24.0830238,121.946221 9.41237113,122.44375 C5.3779916,121.946221 2.66540812,121.78196 0,122.44375 C15.0758987,131.278263 32.97558,137 53.9072165,137 C114.851795,137 149.10448,84.2997952 151.453608,39.3875 C149.10448,37.0954689 149.074153,35.600015 151.453608,34.25 C155.661856,29.2486137 161.437468,23.1538692 166,14.55625 Z"></path>
        </g>
    </g>
</svg>