<?xml version="1.0" encoding="UTF-8" standalone="no"?>
<svg width="40px" height="32px" viewBox="0 0 40 32" version="1.1" xmlns="http://www.w3.org/2000/svg" xmlns:xlink="http://www.w3.org/1999/xlink">
    <!-- Generator: Sketch 41.2 (35397) - http://www.bohemiancoding.com/sketch -->
    <title>Group Copy</title>
    <desc>Created with Sketch.</desc>
    <defs></defs>
    <g id="Symbols" stroke="none" stroke-width="1" fill="none" fill-rule="evenodd">
        <g id="Group-Copy" fill="#FD4040">
            <g id="Shape">
                <path d="M39.4904459,6.96774194 C39.599875,6.90533333 39.209753,3.768 37.9617834,2.32258065 C36.4889028,0.576 34.7846202,0.565333333 33.8853503,0.516129032 C28.4051266,0 20.0087527,0 20.1273885,0 L19.8726115,0 C19.9899969,0 11.593623,0 6.11464968,0.516129032 C5.21537981,0.565333333 3.51234761,0.576 2.03821656,2.32258065 C0.791497343,3.768 0.400125039,6.90533333 0.50955414,6.96774194 C0.400125039,6.90533333 0,10.5866667 0,14.1935484 L0,17.8064516 C0,21.4026667 0.400125039,25.0826667 0.50955414,25.0322581 C0.400125039,25.0826667 0.790246952,28.2186667 2.03821656,29.6774194 C3.51234761,31.408 5.50922163,31.3533333 6.36942675,31.483871 C9.59924977,31.892 20,32 19.8726115,32 C20,32 28.4051266,31.984 33.8853503,31.483871 C34.7846202,31.42 36.4889028,31.4093333 37.9617834,29.6774194 C39.2085027,28.22 39.599875,25.084 39.4904459,25.0322581 C39.599875,25.084 40,21.4026667 40,17.8064516 L40,14.1935484 C40,10.5866667 39.599875,6.90533333 39.4904459,6.96774194 L39.4904459,6.96774194 Z"></path>
            </g>
        </g>
    </g>
</svg>